PathFileType	4	(x/y/z)	A01_PREF_T0017.trc
DataRate	CameraRate	NumFrames	NumMarkers	Units	OrigDataRate	OrigDataStartFrame	OrigNumFrames
240	240	4	48	mm	240	271	309
Frame#	Time	TOP_HEAD			R_AC			L_AC			R_ASIS			L_ASIS			R_PSIS			L_PSIS			SACRAL			L_IC			R_IC			L_GT			R_GT			R_LAT_KNEE			R_MED_KNEE			L_MED_KNEE			L_LAT_KNEE			R_TOE			L_TOE			R_1ST_MET			L_1ST_MET			L_5TH_MET			R_5TH_MET			R_LAT_ANK			R_MED_ANK			L_MED_ANK			L_LAT_ANK			L_HEEL_SUP			R_HEEL_SUP			L_HEEL_LAT			R_HEEL_LAT			L_HEEL_MED			R_HEEL_MED			R_LL_PROX_POST			R_LL_PROX_ANT			R_LL_DIST_ANT			R_LL_DIST_POST			R_THIGH_PROX_POST			R_THIGH_PROX_ANT			R_THIGH_DIST_ANT			R_THIGH_DIST_POST			L_PROS_PROX_ANT			L_PROS_PROX_POST			L_PROS_DIST_POST			L_PROS_DIST_ANT			L_THIGH_PROX_ANT			L_THIGH_PROX_POST			L_THIGH_DIST_POST			L_THIGH_DIST_ANT			
		X1	Y1	Z1	X2	Y2	Z2	X3	Y3	Z3	X4	Y4	Z4	X5	Y5	Z5	X6	Y6	Z6	X7	Y7	Z7	X8	Y8	Z8	X9	Y9	Z9	X10	Y10	Z10	X11	Y11	Z11	X12	Y12	Z12	X13	Y13	Z13	X14	Y14	Z14	X15	Y15	Z15	X16	Y16	Z16	X17	Y17	Z17	X18	Y18	Z18	X19	Y19	Z19	X20	Y20	Z20	X21	Y21	Z21	X22	Y22	Z22	X23	Y23	Z23	X24	Y24	Z24	X25	Y25	Z25	X26	Y26	Z26	X27	Y27	Z27	X28	Y28	Z28	X29	Y29	Z29	X30	Y30	Z30	X31	Y31	Z31	X32	Y32	Z32	X33	Y33	Z33	X34	Y34	Z34	X35	Y35	Z35	X36	Y36	Z36	X37	Y37	Z37	X38	Y38	Z38	X39	Y39	Z39	X40	Y40	Z40	X41	Y41	Z41	X42	Y42	Z42	X43	Y43	Z43	X44	Y44	Z44	X45	Y45	Z45	X46	Y46	Z46	X47	Y47	Z47	X48	Y48	Z48	

271	1.1287	916.04	1771.7	336.04	678.76	1581.7	568.83	646.48	1585.4	108.51	658.56	1115	540.6	681.71	1060.2	188.53	449.77	1125	399.13	467.64	1116.2	270.55	441.7	1091.9	332.21	646.58	1184.2	146.48	630.22	1220.2	549.26	630.92	979.1	142.38	581.52	1008.4	572.67	512.33	603.6	499.58	552.75	598.2	371.72	772.53	590.89	359.92	749.17	599.16	202.37	603.98	65.43	378.32	1054.4	159.32	235.32	522.23	55.173	336.54	984.68	109.12	288.4	956.34	100.26	161.2	497.77	44.701	470.87	403.54	145.02	454.37	413.26	154.94	353.5	839.43	159.46	275.73	812.51	147.1	209.6	745.94	70.682	246.9	299.34	137.57	398	761.63	46.891	215.34	300.34	110.36	431.02	772.22	45.755	278.32	300.7	111.27	370.48	388.47	447.09	489.18	453.92	425.24	513	445.65	352.08	493.81	391.19	364.56	479.28	519.87	876.76	543.61	590.87	885.05	556.78	582.21	794.65	546.08	514.78	788.25	531.63	814.42	530.71	211.31	761.43	516.59	200.05	770.91	454.09	205.35	820.66	474.61	215.36	734.3	857.84	189.76	670.03	843.59	159.86	699.77	774.48	174.8	758.72	788.56	200.28
272	1.1328	920.93	1771.1	335.65	683.7	1581.3	568.59	651.22	1584.9	108.35	663.4	1114.7	540.34	687.29	1059.4	188.29	454.92	1124.5	398.44	472.97	1115.5	269.97	446.87	1091.3	331.58	651.97	1183.7	146.28	634.89	1219.9	548.88	636.32	978.11	142.25	585.98	1008.2	572.42	514.32	603.96	499.36	554.74	598.33	371.46	777.26	590.11	360.68	754.17	597.78	203.03	604.01	65.422	378.31	1067.3	163.65	237.45	522.37	55.075	336.51	998.3	112.25	290.47	970.56	102.61	163.12	497.96	44.76	470.83	404.09	145.66	454.24	413.97	155.48	353.36	852.19	159.72	277.2	825.69	146.86	211.02	760.42	69.167	248.19	299.93	138.54	397.83	776.66	45.633	216.72	300.83	111.37	430.87	787.11	44.844	279.79	301.2	112.22	370.39	389.85	447.86	488.85	455.21	425.83	512.75	446.74	352.69	493.57	392.34	365.32	479.01	523.58	877.13	543.34	594.62	885.01	556.52	585.45	794.67	545.78	517.92	788.69	531.44	820.66	530.5	212.22	767.93	515.39	200.86	778.53	453.08	206.24	827.9	474.51	216.38	739.37	856.62	189.78	675.11	842.41	159.84	704.69	773.29	174.98	763.63	787.33	200.54
273	1.137	925.83	1770.5	335.24	688.64	1580.7	568.33	655.96	1584.3	108.18	668.26	1114.4	540.08	692.87	1058.4	188.04	460.1	1124	397.75	478.31	1114.7	269.38	452.05	1090.7	330.94	657.39	1183.2	146.08	639.57	1219.5	548.51	641.74	977.07	142.11	590.46	1008.1	572.16	516.35	604.3	499.14	556.77	598.45	371.2	782.06	589.32	361.45	759.22	596.4	203.68	604.04	65.416	378.31	1079.8	167.93	239.56	522.51	54.975	336.47	1011.6	115.37	292.56	984.43	104.96	165.06	498.14	44.823	470.79	404.65	146.3	454.09	414.67	156	353.21	864.72	160.05	278.69	838.61	146.71	212.47	774.61	67.81	249.54	300.53	139.5	397.64	791.38	44.525	218.17	301.32	112.37	430.71	801.7	44.079	281.33	301.69	113.16	370.28	391.26	448.61	488.51	456.53	426.4	512.49	447.85	353.27	493.32	393.52	366.06	478.73	527.31	877.45	543.06	598.4	884.92	556.25	588.73	794.66	545.48	521.1	789.09	531.25	826.89	530.27	213.12	774.43	514.21	201.68	786.1	452.1	207.15	835.11	474.38	217.39	744.45	855.37	189.78	680.21	841.18	159.8	709.66	772.07	175.14	768.58	786.08	200.77
274	1.1412	930.74	1769.9	334.82	693.59	1580.2	568.07	660.71	1583.6	107.99	673.12	1114	539.81	698.44	1057.5	187.8	465.28	1123.5	397.06	483.64	1113.8	268.78	457.25	1090	330.31	662.85	1182.6	145.88	644.26	1219	548.14	647.16	975.98	141.98	594.96	1007.9	571.91	518.43	604.61	498.91	558.85	598.54	370.94	786.94	588.52	362.21	764.34	595.01	204.34	604.07	65.411	378.3	1092	172.12	241.65	522.64	54.873	336.43	1024.6	118.47	294.64	997.94	107.31	167	498.31	44.891	470.74	405.2	146.92	453.92	415.37	156.52	353.03	876.98	160.44	280.21	851.26	146.62	213.96	788.5	66.595	250.95	301.12	140.45	397.43	805.79	43.552	219.67	301.81	113.37	430.53	815.97	43.444	282.92	302.18	114.09	370.16	392.71	449.35	488.17	457.89	426.95	512.21	449	353.83	493.06	394.73	366.79	478.43	531.09	877.73	542.79	602.22	884.8	555.99	592.04	794.6	545.18	524.32	789.45	531.05	833.11	530	214.02	780.93	513.04	202.51	793.63	451.13	208.07	842.27	474.24	218.4	749.58	854.09	189.76	685.34	839.92	159.74	714.67	770.81	175.29	773.58	784.8	200.98
